<svg xmlns="http://www.w3.org/2000/svg" xmlns:xlink="http://www.w3.org/1999/xlink" version="1.1" x="0px" y="0px" viewBox="0 0 100 125" style="enable-background:new 0 0 100 100;" xml:space="preserve"><g><g><g><g><g><path d="M50,99C23,99,1,77,1,50S23,1,50,1s49,22,49,49S77,99,50,99z M50,4C24.6,4,4,24.6,4,50s20.6,46,46,46s46-20.6,46-46       S75.4,4,50,4z"/></g></g></g></g><path d="M81.2,69.7h-0.7H74V30.5c0-0.8-0.7-1.5-1.5-1.5h-6.9c-0.8,0-1.5,0.7-1.5,1.5v39.2h-2.2V40.9c0-0.8-0.7-1.5-1.5-1.5h-6.9   c-0.8,0-1.5,0.7-1.5,1.5v28.8h-3.1v-6.3c0-0.8-0.7-1.5-1.5-1.5h-6.9c-0.8,0-1.5,0.7-1.5,1.5v6.3h-3.1V50.4c0-0.8-0.7-1.5-1.5-1.5   h-6.9c-0.8,0-1.5,0.7-1.5,1.5v19.3h-7.1c-0.8,0-1.5,0.7-1.5,1.5s0.7,1.5,1.5,1.5h15.5h6.1h6.9h6.1h6.9h5.2h6.9h8.1h0.7   c0.8,0,1.5-0.7,1.5-1.5S82.1,69.7,81.2,69.7z M29,51.9h3.9v17.8H29V51.9z M42,64.9h3.9v4.8H42V64.9z M55,42.4h3.9v27.3H55V42.4z    M67.1,32H71v37.7h-3.9V32z"/></g><text x="0" y="115" fill="#000000" font-size="5px" font-weight="bold" font-family="'Helvetica Neue', Helvetica, Arial-Unicode, Arial, Sans-serif">Created by Sullyvan Lecomte</text><text x="0" y="120" fill="#000000" font-size="5px" font-weight="bold" font-family="'Helvetica Neue', Helvetica, Arial-Unicode, Arial, Sans-serif">from the Noun Project</text></svg>